# xmcd CD database file
#
# Track frame offsets:
#	150
#	7247
#	18245
#	32400
#	43685
#	57572
#	70585
#	84227
#	101835
#	111702
#	125737
#	137402
#	145205
#	149972
#	168355
#
# Disc length: 2300 seconds
#
# Revision: 0
# Processed by: cddbd v1.5.1PL0 Copyright (c) Steve Scherf et al.
# Submitted via: CDex 1.50
#
DISCID=de08fa0f
DTITLE=シャネルズ - LIVE AT  "WHISKY A GO GO"
DYEAR=1900
DGENRE=J-pop
TTITLE0=OPENING THEME
TTITLE1=LET'S TWIST AGAIN
TTITLE2=THAT IS ROCK&ROLL
TTITLE3=FOOLSFALLIN'LOVE
TTITLE4=ZING WENT THE STRINGS OF MY HEART
TTITLE5=RUNAWAY
TTITLE6=HURRICANE
TTITLE7=POISON IVY
TTITLE8=SPEEDO'S BACK IN TOWN
TTITLE9=GOING BACK TO INDIANA
TTITLE10=DO YOU LOVE ME
TTITLE11=ENDING THEME(SHAMA-LAMA DING DONG)
TTITLE12=OPENING THEME(THE SOUND OF PHILADELPHIA)
TTITLE13=TONIGHT(COULD BE THE NIGHT)
TTITLE14=CLOSING THEME(IN THE STILL OF THE NIGHT)
EXTD=
EXTT0=
EXTT1=
EXTT2=
EXTT3=
EXTT4=
EXTT5=
EXTT6=
EXTT7=
EXTT8=
EXTT9=
EXTT10=
EXTT11=
EXTT12=
EXTT13=
EXTT14=
PLAYORDER=
